<svg width="50" height="50" viewBox="0 0 50 50" fill="none" xmlns="http://www.w3.org/2000/svg">
<path d="M46.1602 6.31582H45.0044C45.0425 2.91104 42.2143 0 38.6752 0H14.5464C14.5434 0 14.5406 0.000390625 14.5377 0.000390625C14.5348 0.000390625 14.532 0 14.5291 0H11.0346C7.56615 0 4.74168 2.72881 4.70655 6.0958H2.82247C1.26613 6.0958 0 7.32793 0 8.84248C0 10.357 1.26613 11.5892 2.82247 11.5892H4.70495V16.8675H2.82247C1.26613 16.8675 0 18.0997 0 19.6143C0 21.1288 1.26613 22.3609 2.82247 22.3609H4.70495V27.6393H2.82247C1.26613 27.6393 0 28.8715 0 30.386C0 31.9006 1.26613 33.1326 2.82247 33.1326H4.70495V38.4109H2.82247C1.26613 38.4109 0 39.6431 0 41.1576C0 42.6722 1.26613 43.9043 2.82247 43.9043H4.70665C4.74178 47.2712 7.56625 50 11.0346 50H14.5291C14.532 50 14.5348 49.9996 14.5377 49.9996C14.5406 49.9996 14.5434 50 14.5464 50H38.6752C42.2252 50 45.0416 47.0814 45.0044 43.6706H46.1604C48.2776 43.6706 50 41.9943 50 39.934V10.0521C50 7.99189 48.2775 6.31582 46.1602 6.31582ZM48.4947 31.951C48.4947 33.2036 47.4475 34.2228 46.1604 34.2228H45.0044V27.7046H46.1604C47.038 27.7046 47.8474 27.4159 48.4947 26.9318V31.951ZM48.4947 23.968C48.4947 25.2206 47.4475 26.2397 46.1604 26.2397H45.0044V19.5891H46.1602C47.0379 19.5891 47.8473 19.3004 48.4948 18.8163V23.968H48.4947ZM46.1602 7.78066C47.4475 7.78066 48.4948 8.79971 48.4948 10.0521V15.8527C48.4948 17.1052 47.4475 18.1242 46.1602 18.1242H45.0044V7.78066H46.1602ZM1.50526 8.84248C1.50526 8.13574 2.09623 7.56064 2.82247 7.56064H8.12601C8.85235 7.56064 9.44321 8.13574 9.44321 8.84248C9.44321 9.54922 8.85235 10.1243 8.12601 10.1243H2.82247C2.09613 10.1243 1.50526 9.54922 1.50526 8.84248ZM1.50526 19.6143C1.50526 18.9074 2.09623 18.3323 2.82247 18.3323H8.12601C8.85235 18.3323 9.44321 18.9074 9.44321 19.6143C9.44321 20.321 8.85235 20.8961 8.12601 20.8961H2.82247C2.09613 20.8961 1.50526 20.321 1.50526 19.6143ZM1.50526 30.3859C1.50526 29.6791 2.09623 29.104 2.82247 29.104H8.12601C8.85235 29.104 9.44321 29.6791 9.44321 30.3858C9.44321 31.0927 8.85235 31.6678 8.12601 31.6678H2.82247C2.09613 31.6678 1.50526 31.0928 1.50526 30.3859ZM1.50526 41.1576C1.50526 40.4509 2.09623 39.8758 2.82247 39.8758H8.12601C8.85235 39.8758 9.44321 40.4509 9.44321 41.1576C9.44321 41.8644 8.85235 42.4395 8.12601 42.4395H2.82247C2.09613 42.4395 1.50526 41.8644 1.50526 41.1576ZM46.1604 42.2058H45.0044V41.1577C45.0044 40.2107 43.4992 40.2107 43.4992 41.1577V43.8409C43.4992 46.4294 41.3352 48.5353 38.6752 48.5353H15.2816V10.8567C15.2816 9.90977 13.7764 9.90977 13.7764 10.8567V48.5352H11.0345C8.39615 48.5352 6.24684 46.4635 6.21182 43.9043H8.12601C9.68235 43.9043 10.9485 42.6722 10.9485 41.1576C10.9485 39.6431 9.68235 38.4109 8.12601 38.4109H6.21021V33.1326H8.12601C9.68235 33.1326 10.9485 31.9004 10.9485 30.3858C10.9485 28.8713 9.68235 27.6392 8.12601 27.6392H6.21021V22.3608H8.12601C9.68235 22.3608 10.9485 21.1287 10.9485 19.6142C10.9485 18.0996 9.68235 16.8674 8.12601 16.8674H6.21021V11.5891H8.12601C9.68235 11.5891 10.9485 10.3569 10.9485 8.84238C10.9485 7.32783 9.68235 6.0958 8.12601 6.0958H6.21182C6.24684 3.53652 8.39615 1.46484 11.0346 1.46484H13.7765V7.04824C13.7765 7.99521 15.2817 7.99521 15.2817 7.04824V1.46484H38.6753C41.3352 1.46484 43.4993 3.5707 43.4993 6.15928V37.3572C43.4993 38.3042 45.0045 38.3042 45.0045 37.3572V35.6875H46.1605C47.0381 35.6875 47.8475 35.3988 48.4948 34.9147V39.934C48.4947 41.1866 47.4476 42.2058 46.1604 42.2058Z" fill="#505050"/>
<path d="M32.9757 20.2035C34.346 19.0771 35.1761 17.398 35.1761 15.6101C35.1761 12.2995 32.408 9.60602 29.0054 9.60602C25.6029 9.60602 22.8348 12.2995 22.8348 15.6101C22.8348 17.3981 23.6648 19.0771 25.0352 20.2035C21.777 21.684 19.6095 24.9049 19.6095 28.4896C19.6095 29.4366 21.1147 29.4366 21.1147 28.4896C21.1147 25.0465 23.4956 22.0035 26.9045 21.0893C27.5645 20.9123 27.6442 20.0036 27.0245 19.7203C25.3938 18.9747 24.3401 17.3615 24.3401 15.6101C24.3401 13.1071 26.4329 11.0709 29.0054 11.0709C31.5779 11.0709 33.6708 13.1072 33.6708 15.6101C33.6708 17.3615 32.6171 18.9747 30.9864 19.7203C30.3669 20.0036 30.4465 20.9123 31.1065 21.0893C34.5154 22.0035 36.8962 25.0465 36.8962 28.4896C36.8962 29.4366 38.4015 29.4366 38.4015 28.4896C38.4015 24.9048 36.234 21.684 32.9757 20.2035Z" fill="#505050"/>
<path d="M37.6488 34.0839H20.3621C19.389 34.0839 19.389 35.5487 20.3621 35.5487H37.6488C38.6219 35.5487 38.6219 34.0839 37.6488 34.0839Z" fill="#505050"/>
<path d="M34.6245 38.9157H23.3864C22.4133 38.9157 22.4133 40.3806 23.3864 40.3806H34.6245C35.5976 40.3806 35.5976 38.9157 34.6245 38.9157Z" fill="#505050"/>
</svg>
