<svg width="41" height="40" viewBox="0 0 41 40" fill="none" xmlns="http://www.w3.org/2000/svg">
<path d="M37.8952 7.06889e-08H3.12356C1.93288 0.000610422 0.967628 0.989074 0.967926 2.20795V37.7939C0.968522 39.0124 1.93437 40.0003 3.12535 40H37.8952C39.0865 40.0003 40.0523 39.0121 40.0526 37.793C40.0526 37.7926 40.0526 37.7923 40.0526 37.792V2.20611C40.052 0.987548 39.0862 -0.000305105 37.8952 7.06889e-08Z" fill="#505050"/>
<path d="M27.9532 40V24.5313H33.0487L33.8121 18.4766H27.9532V14.6204C27.9532 12.8715 28.4276 11.6797 30.8782 11.6797H33.9838V6.27905C33.4435 6.20551 31.5896 6.04102 29.4325 6.04102C24.9286 6.04102 21.8462 8.85351 21.8462 14.0207V18.4766H16.7698V24.5313H21.8462V40H27.9532Z" fill="white"/>
</svg>
