<svg width="41" height="29" viewBox="0 0 41 29" fill="none" xmlns="http://www.w3.org/2000/svg">
<path d="M37.2684 0H3.93507C2.09664 0 0.601715 1.42943 0.601715 3.18733V25.4985C0.601715 27.2563 2.09664 28.6857 3.93507 28.6857H37.2684C39.1068 28.6857 40.6017 27.2563 40.6017 25.4984V3.18733C40.6017 1.42943 39.1068 0 37.2684 0ZM3.93507 1.59363H37.2684C37.3912 1.59363 37.4994 1.63643 37.6147 1.66064C34.7288 4.1861 25.1598 12.5567 21.8111 15.4416C21.5491 15.6673 21.1267 15.9365 20.6018 15.9365C20.0769 15.9365 19.6545 15.6673 19.3916 15.4408C16.0433 12.5564 6.47367 4.18535 3.58828 1.66079C3.70375 1.63658 3.81218 1.59363 3.93507 1.59363ZM2.26836 25.4984V3.18733C2.26836 3.0312 2.31757 2.88957 2.36164 2.74688C4.57039 4.67988 11.2473 10.5204 15.5766 14.2849C11.2613 17.8293 4.58273 23.8838 2.3564 25.9138C2.31711 25.7782 2.26836 25.6457 2.26836 25.4984ZM37.2684 27.0921H3.93507C3.80195 27.0921 3.68359 27.0477 3.55929 27.0194C5.85984 24.9223 12.5809 18.833 16.8204 15.3651C17.373 15.8445 17.8779 16.2815 18.2759 16.6244C18.9627 17.2174 19.7667 17.5302 20.6017 17.5302C21.4367 17.5302 22.2407 17.2173 22.9267 16.6252C23.3248 16.2821 23.8301 15.8447 24.383 15.3651C28.6227 18.8326 35.3429 24.9215 37.6441 27.0194C37.5198 27.0477 37.4016 27.0921 37.2684 27.0921ZM38.9351 25.4984C38.9351 25.6457 38.8863 25.7782 38.8471 25.9138C36.6199 23.8827 29.9421 17.8289 25.6269 14.285C29.9564 10.5205 36.6323 4.68048 38.8418 2.74673C38.8859 2.88942 38.9351 3.03113 38.9351 3.18725V25.4984V25.4984Z" fill="#505050"/>
</svg>
