<svg width="41" height="37" viewBox="0 0 41 37" fill="none" xmlns="http://www.w3.org/2000/svg">
<path fill-rule="evenodd" clip-rule="evenodd" d="M40.6214 15.503C40.4271 15.3668 40.1725 15.3142 39.9288 15.3595L27.3194 17.7014L25.9052 17.4389L29.6367 10.9507C29.6428 10.9401 29.6486 10.9294 29.6541 10.9188C30.155 9.929 30.409 8.87589 30.409 7.78833C30.409 3.49382 26.3844 0 21.4372 0C16.4899 0 12.465 3.49382 12.465 7.78833C12.465 8.87589 12.719 9.929 13.2202 10.9188C13.2257 10.9294 13.2312 10.9401 13.2373 10.9507L15.9006 15.5806L14.7097 15.3595C14.6987 15.3573 14.6874 15.3565 14.6761 15.3551C14.66 15.3525 14.6441 15.35 14.628 15.3483C14.6132 15.3469 14.5986 15.3467 14.5841 15.3458C14.568 15.345 14.5522 15.3438 14.5363 15.3438C14.5212 15.3438 14.5063 15.345 14.4912 15.3455C14.4757 15.3464 14.4602 15.3469 14.445 15.3483C14.4292 15.35 14.4137 15.3525 14.3982 15.3548C14.3866 15.3565 14.3753 15.3573 14.3637 15.3593L1.58126 17.7336C1.20043 17.8042 0.92804 18.0967 0.92804 18.4348V24.3503C0.92804 24.7464 1.2979 25.0675 1.75425 25.0675C2.21061 25.0675 2.58047 24.7464 2.58047 24.3503V19.0147L13.7105 16.9477V33.0494L2.58047 35.1164V30.0879C2.58047 29.6917 2.21061 29.3707 1.75425 29.3707C1.2979 29.3707 0.92804 29.6917 0.92804 30.0879V36.0034C0.92804 36.2199 1.04068 36.425 1.23464 36.5609C1.3831 36.6651 1.56674 36.7206 1.75425 36.7206C1.8117 36.7206 1.86979 36.7153 1.92724 36.7046L14.5367 34.3628L27.1464 36.7046C27.1509 36.7054 27.1555 36.706 27.16 36.7066C27.1784 36.7096 27.1968 36.7122 27.2152 36.7141C27.2236 36.715 27.2316 36.7161 27.24 36.7169C27.2662 36.7192 27.2926 36.7206 27.3194 36.7206C27.3459 36.7206 27.3723 36.7192 27.3985 36.7169C27.4069 36.7161 27.4153 36.715 27.4233 36.7141C27.4417 36.7122 27.4601 36.7096 27.4782 36.7066C27.4827 36.7057 27.4876 36.7054 27.4921 36.7046L40.2745 34.3306C40.6556 34.2597 40.928 33.9675 40.928 33.6293V27.7138C40.928 27.3177 40.5582 26.9966 40.1018 26.9966C39.6455 26.9966 39.2756 27.3177 39.2756 27.7138V33.0491L28.1456 35.1164V19.0147L39.2756 16.9477V21.9763C39.2756 22.3724 39.6455 22.6935 40.1018 22.6935C40.5582 22.6935 40.928 22.3724 40.928 21.9763V16.0608C40.928 15.8442 40.8154 15.6394 40.6214 15.503V15.503ZM14.1174 7.78833C14.1174 4.2847 17.401 1.4344 21.4372 1.4344C25.4733 1.4344 28.7569 4.2847 28.7569 7.78833C28.7569 8.67026 28.5523 9.52389 28.1492 10.326L21.4372 21.9959L14.7251 10.326C14.3217 9.52389 14.1174 8.67026 14.1174 7.78833V7.78833ZM15.3629 16.9477L16.8449 17.2229L20.6981 23.9217C20.8378 24.1648 21.1241 24.3186 21.4372 24.3186C21.7502 24.3186 22.0365 24.1648 22.1766 23.9217L25.1429 18.764L26.4932 19.0147V35.1164L15.3632 33.0491V16.9477H15.3629Z" fill="#505050"/>
<path fill-rule="evenodd" clip-rule="evenodd" d="M26.7498 7.78832C26.7498 5.24534 24.3666 3.17639 21.4371 3.17639C18.5076 3.17639 16.1242 5.24534 16.1242 7.78832C16.1242 10.3313 18.5076 12.4 21.4371 12.4C24.3666 12.4 26.7498 10.3313 26.7498 7.78832ZM17.7766 7.78832C17.7766 6.03622 19.4187 4.61079 21.4371 4.61079C23.4556 4.61079 25.0977 6.03622 25.0977 7.78832C25.0977 9.54013 23.4556 10.9656 21.4371 10.9656C19.4187 10.9656 17.7766 9.54013 17.7766 7.78832V7.78832Z" fill="#505050"/>
<path fill-rule="evenodd" clip-rule="evenodd" d="M1.75425 27.9362C2.20931 27.9362 2.58047 27.614 2.58047 27.219C2.58047 26.824 2.20931 26.5018 1.75425 26.5018C1.29919 26.5018 0.92804 26.824 0.92804 27.219C0.92804 27.614 1.29919 27.9362 1.75425 27.9362Z" fill="#505050"/>
<path fill-rule="evenodd" clip-rule="evenodd" d="M40.1018 24.1279C39.6467 24.1279 39.2756 24.4501 39.2756 24.8451C39.2756 25.2401 39.6467 25.5623 40.1018 25.5623C40.5568 25.5623 40.928 25.2401 40.928 24.8451C40.928 24.4501 40.5568 24.1279 40.1018 24.1279Z" fill="#505050"/>
</svg>
