<svg width="50" height="50" viewBox="0 0 50 50" fill="none" xmlns="http://www.w3.org/2000/svg">
<g clip-path="url(#clip0)">
<path d="M36.7094 0H13.1984C10.8809 0.00271774 9.00273 1.87315 9 4.18113V45.9925C9.00273 48.3004 10.8809 50.1709 13.1984 50.1736H36.7094C39.027 50.1709 40.9051 48.3004 40.9078 45.9925V4.18113C40.9051 1.87315 39.027 0.00271774 36.7094 0ZM39.2285 45.9925C39.2285 47.378 38.1007 48.5011 36.7094 48.5011H13.1984C11.8072 48.5011 10.6794 47.378 10.6794 45.9925V41.8113H39.2285V45.9925ZM39.2285 40.1389H10.6794V6.68981H39.2285V40.1389ZM39.2285 5.01736H10.6794V4.18113C10.6794 2.79561 11.8072 1.67245 13.1984 1.67245H36.7094C38.1007 1.67245 39.2285 2.79561 39.2285 4.18113V5.01736Z" fill="#505050"/>
<path d="M24.9539 42.6475C23.5627 42.6475 22.4349 43.7707 22.4349 45.1562C22.4349 46.5417 23.5627 47.6649 24.9539 47.6649C26.3452 47.6649 27.473 46.5417 27.473 45.1562C27.473 43.7707 26.3452 42.6475 24.9539 42.6475ZM24.9539 45.9924C24.4902 45.9924 24.1142 45.618 24.1142 45.1562C24.1142 44.6944 24.4902 44.32 24.9539 44.32C25.4176 44.32 25.7936 44.6944 25.7936 45.1562C25.7936 45.618 25.4176 45.9924 24.9539 45.9924Z" fill="#505050"/>
<path d="M25.7936 2.50873H24.1143C23.6506 2.50873 23.2746 2.88315 23.2746 3.34495C23.2746 3.80676 23.6506 4.18118 24.1143 4.18118H25.7936C26.2574 4.18118 26.6333 3.80676 26.6333 3.34495C26.6333 2.88315 26.2574 2.50873 25.7936 2.50873Z" fill="#505050"/>
</g>
<defs>
<clipPath id="clip0">
<rect width="50" height="50" fill="white"/>
</clipPath>
</defs>
</svg>
