<svg width="51" height="50" viewBox="0 0 51 50" fill="none" xmlns="http://www.w3.org/2000/svg">
<g clip-path="url(#clip0)">
<path d="M49.6321 7.79137C48.9189 6.92643 47.8618 6.43073 46.7321 6.43073H17.7208C17.1266 6.43073 16.6443 6.91295 16.6443 7.50719C16.6443 8.10143 17.1266 8.58365 17.7208 8.58365H46.7315C47.2229 8.58365 47.6632 8.78873 47.9706 9.16119C48.2828 9.5401 48.4076 10.0396 48.3134 10.5256L44.0113 32.0375C43.8444 32.8062 43.1926 33.3428 42.4261 33.3428H18.4975L8.61809 3.599C8.0841 2.07361 6.6384 1.04881 4.98274 1.04881C4.98225 1.04881 4.98167 1.04881 4.98108 1.04881C3.57679 1.09724 2.15267 1.09675 1.80384 1.07302C1.45668 0.997634 1.08148 1.09451 0.812438 1.36365C0.392029 1.78406 0.392029 2.4654 0.812438 2.88581C1.14564 3.21902 1.25814 3.33152 5.01829 3.20124C5.72337 3.20124 6.35364 3.64694 6.5803 4.29382L16.6992 34.7588C16.8456 35.1985 17.2568 35.4956 17.7208 35.4956H42.426C44.2141 35.4956 45.7308 34.2614 46.1189 32.4772L50.4264 10.9416C50.6439 9.81568 50.3549 8.66764 49.6321 7.79137Z" fill="#505050"/>
<path d="M41.9416 41.4169H22.3497C21.6871 41.4169 21.0643 40.9605 20.8399 40.3199L18.7408 34.0763C18.5514 33.5127 17.9394 33.2086 17.3774 33.3992C16.8139 33.5881 16.5108 34.199 16.7003 34.7625L18.8037 41.0185C19.3382 42.5443 20.7629 43.5691 22.3496 43.5691H41.9415C42.5358 43.5691 43.018 43.0874 43.018 42.4932C43.018 41.8989 42.5359 41.4169 41.9416 41.4169Z" fill="#505050"/>
<path d="M23.1032 41.4163C21.0255 41.4163 19.3355 43.1069 19.3355 45.184C19.3355 47.261 21.0255 48.9517 23.1032 48.9517C25.1808 48.9517 26.8708 47.261 26.8708 45.184C26.8708 43.1069 25.1808 41.4163 23.1032 41.4163ZM23.1032 46.7987C22.2129 46.7987 21.4884 46.0742 21.4884 45.184C21.4884 44.2938 22.2129 43.5692 23.1032 43.5692C23.9934 43.5692 24.7179 44.2938 24.7179 45.184C24.7179 46.0743 23.9934 46.7987 23.1032 46.7987Z" fill="#505050"/>
<path d="M41.9416 41.4163C39.8646 41.4163 38.174 43.1069 38.174 45.184C38.174 47.261 39.8646 48.9517 41.9416 48.9517C44.0187 48.9517 45.7093 47.261 45.7093 45.184C45.7093 43.1069 44.0187 41.4163 41.9416 41.4163ZM41.9416 46.7987C41.0514 46.7987 40.3269 46.0742 40.3269 45.184C40.3269 44.2938 41.0514 43.5692 41.9416 43.5692C42.8318 43.5692 43.5564 44.2938 43.5564 45.184C43.5564 46.0743 42.8318 46.7987 41.9416 46.7987Z" fill="#505050"/>
</g>
<defs>
<clipPath id="clip0">
<rect width="50" height="50" fill="white" transform="translate(0.497192)"/>
</clipPath>
</defs>
</svg>
