<svg width="50" height="50" viewBox="0 0 50 50" fill="none" xmlns="http://www.w3.org/2000/svg">
<path d="M28.1247 50H5.20828C2.33748 50 0 47.6625 0 44.7917V5.20833C0 2.3375 2.33748 0 5.20828 0H28.1247C30.9955 0 33.333 2.3375 33.333 5.20833V17.7083C33.333 18.2833 32.8663 18.75 32.2913 18.75C31.7163 18.75 31.2497 18.2833 31.2497 17.7083V5.20833C31.2497 3.48542 29.8476 2.08333 28.1247 2.08333H5.20828C3.48538 2.08333 2.08331 3.48542 2.08331 5.20833V44.7917C2.08331 46.5146 3.48538 47.9167 5.20828 47.9167H28.1247C29.8476 47.9167 31.2497 46.5146 31.2497 44.7917V32.2917C31.2497 31.7167 31.7163 31.25 32.2913 31.25C32.8663 31.25 33.333 31.7167 33.333 32.2917V44.7917C33.333 47.6625 30.9955 50 28.1247 50Z" fill="#505050"/>
<path d="M48.9578 26.0416L17.7082 26.0416C17.1332 26.0416 16.6665 25.5749 16.6665 24.9999C16.6665 24.4249 17.1332 23.9583 17.7082 23.9583L48.9578 23.9583C49.5328 23.9583 49.9995 24.4249 49.9995 24.9999C49.9995 25.5749 49.5328 26.0416 48.9578 26.0416Z" fill="#505050"/>
<path d="M40.6246 34.375C40.3579 34.375 40.0912 34.273 39.8871 34.0709C39.4808 33.6646 39.4808 33.0042 39.8871 32.598L47.4849 25L39.8892 17.4042C39.4829 16.998 39.4829 16.3375 39.8892 15.9313C40.2954 15.525 40.9558 15.525 41.3621 15.9313L49.6953 24.2646C50.1016 24.6709 50.1016 25.3313 49.6953 25.7375L41.3621 34.0709C41.1579 34.273 40.8912 34.375 40.6246 34.375Z" fill="#505050"/>
</svg>
